<svg xmlns="http://www.w3.org/2000/svg" viewBox="0 0 303.24 25.33" role="img" aria-labelledby="b-top-kv-tagline"><title id="b-top-kv-tagline">新しい技術の見本市。</title><path d="M8.37.85V3h4.24V5.72H11.55L10.39,8.8h2.75v2.75H8.37v1.59h4.24V15.9H8.37v.42a23.22,23.22,0,0,1,4,2.65l-1.7,2.44c-.77-.78-1.55-1.52-2.33-2.23v6.15h-3V19.5A34.66,34.66,0,0,1,2,23.21L.11,21.09a19.72,19.72,0,0,0,2.33-2A11.51,11.51,0,0,0,4.77,15.9h-4V13.14H5.4V11.55H0V8.8H3.39A23.56,23.56,0,0,0,2.33,6.25l1.91-.53H1V3H5.4V0H8C8.8.07,8.94.35,8.37.85ZM5.19,5.72A21.7,21.7,0,0,1,6.25,8.27L4.34,8.8H7.63l1-3.08ZM19.5,2.23a16.87,16.87,0,0,0,2.86-1.17l1.8,2c.29.36.39.6.32.75s-.32.21-.74,0a27.29,27.29,0,0,1-6.89,1.37V9h8.37v2.75H22V25.22h-3V11.76H16.85v1.81a17,17,0,0,1-1.91,8.05,8.19,8.19,0,0,1-3.6,3.5L9.43,22.79a7.55,7.55,0,0,0,2.65-2.34,10.17,10.17,0,0,0,1.8-5.61V2.12l2.65.64A16.66,16.66,0,0,0,19.5,2.23Z" fill="#530edf"/><path d="M38.7,2.44q.11.31-.42.63V17.81a3.48,3.48,0,0,0,.85,2.43c.49.57,1.59.85,3.28.85q3.81,0,8.16-4.66l2.23,2.44Q48.14,24,42.73,24.27a7.91,7.91,0,0,1-5.41-1.38,5.54,5.54,0,0,1-2.22-4.66V2.12h2.75C38.35,2.12,38.63,2.23,38.7,2.44Z" fill="#530edf"/><path d="M66.56,4.13c.07.21-.11.43-.53.64a59.26,59.26,0,0,0-.53,6.89A23.73,23.73,0,0,0,66,17.91c.21,1,.6,1.52,1.16,1.59s1.17-.6,1.8-1.8l1.28-2.65,2.64,2a32.72,32.72,0,0,1-1.58,3.5C70.27,22.33,69,23.17,67.4,23.1q-5-.53-5-10.49c0-3.6.14-6.89.43-9.85l2.86.74A1,1,0,0,1,66.56,4.13ZM81.39,17.81A24.36,24.36,0,0,0,80,12.08a22.9,22.9,0,0,0-3.71-6l2.33-1.7A21.84,21.84,0,0,1,83,10.49,21.23,21.23,0,0,1,84.89,17Z" fill="#530edf"/><path d="M101.55,1V4.88h2.55V7.63h-2.55v4.88l2.87-1,.42,2.65-3.29,1.17v7.52a3.53,3.53,0,0,1-.1.85,1.89,1.89,0,0,1-2,1.38H96.89l-.32-3.18H98c.28,0,.46-.07.53-.21a1.19,1.19,0,0,0,.11-.53V16.32L96.68,17a.67.67,0,0,1-.43.53c-.07.07-.17.07-.31,0s-.25-.25-.32-.53l-.74-2.76,3.71-.95V7.63H95.41V4.88h3.18V.11h2.54Q102.41.21,101.55,1Zm11.13-.1V4.56h6.47V7.31h-6.47V10.6H115l.43-.53L118,11.66l-.53.74a24.47,24.47,0,0,1-3.6,7.1,7.55,7.55,0,0,0,1.38.85,25.83,25.83,0,0,0,5.08,2l-1.48,3c-.78-.28-1.56-.6-2.33-.95a19.35,19.35,0,0,1-4.77-3,13.72,13.72,0,0,1-1.49,1.06,20.27,20.27,0,0,1-6.88,2.86l-1-3.07a21.4,21.4,0,0,0,7.31-2.87,13,13,0,0,1-3-6h-1.7V10.6h4.66V7.31h-5.19V4.56h5.19V0h2.55C113.11.07,113.25.35,112.68.85Zm-2.33,14.84a10.47,10.47,0,0,0,1.48,2.22,18.06,18.06,0,0,0,2.34-4.45h-4.56A6.9,6.9,0,0,0,110.35,15.69Z" fill="#530edf"/><path d="M137,5.94h3.07V.64h2.54c.85.07,1,.35.43.84V3l1.59-1.17a5.23,5.23,0,0,1,.85.85,7.82,7.82,0,0,1,1.27,1.91l-1.7,1.38h1.17V8.69h-3.18V24.38h-3V11.87l-.42.42a22.5,22.5,0,0,1-1.28,8.59l-2.75-1.17a20.58,20.58,0,0,0,.85-3.07A34.07,34.07,0,0,0,137,10.7l2.12.53c.35.15.67.29.95.43v-3H137V7.31a17,17,0,0,1-1.7,3.18V25.12h-3V14.2a1.65,1.65,0,0,0-.31.43,4.17,4.17,0,0,1-1.28,1.16l-1.48-2.65a11.55,11.55,0,0,0,3-3,20.05,20.05,0,0,0,2.54-4.55L137,6.78Zm.31-4.24.22.21c.21.35.17.6-.11.74a.45.45,0,0,1-.42,0A10.46,10.46,0,0,1,136,4.13a23,23,0,0,1-4.67,4.45l-1.59-2.43A14.61,14.61,0,0,0,135.33.21Zm5.73,4.24h1.8a6.29,6.29,0,0,0-.42-.75,13.69,13.69,0,0,0-1.38-1.69Zm4,12.93-2.76.21a37.1,37.1,0,0,0-1-8.06L146,10.7A33.14,33.14,0,0,1,147.1,18.87Zm7-7.85h-2.54V22.68a3.54,3.54,0,0,1-.11.85,1.87,1.87,0,0,1-2,1.38h-3l-.32-3h1.8c.28,0,.46-.07.53-.21a1.19,1.19,0,0,0,.11-.53V11h-2.12V8.27h7.63Zm-1-6.68h-6.26V1.59h6.26Z" fill="#530edf"/><path d="M183.52,4.77c2,1.69,3,4.17,3,7.42a10.3,10.3,0,0,1-2.33,6.68,16,16,0,0,1-6.36,4.55l-2.44-2.65q8.06-3.07,8.06-8.48A7.15,7.15,0,0,0,181.5,7q-2-2-6-2c1.13.28,1.7.57,1.7.85a.74.74,0,0,1-.64.53,64.46,64.46,0,0,1-1.59,7.31q-1.17,4.56-2.44,6.15a4.42,4.42,0,0,1-3.39,2,4.66,4.66,0,0,1-3.39-1.48c-1.48-1.48-2.23-3.75-2.23-6.78a10.86,10.86,0,0,1,3.4-7.95,11.49,11.49,0,0,1,8.47-3.39A12.38,12.38,0,0,1,183.52,4.77ZM169,18.44c.77,0,1.41-.53,1.9-1.59a49.81,49.81,0,0,0,2.65-11.66,7.08,7.08,0,0,0-5.3,3.29,9.68,9.68,0,0,0-1.59,5.19q0,3,1.17,4.14A1.76,1.76,0,0,0,169,18.44Z" fill="#530edf"/><path d="M215.58,17h-3v-.74h-1.69V21a1.17,1.17,0,0,0,.1.53c.07.15.25.22.53.22h3.61a.67.67,0,0,0,.52-.22,2.08,2.08,0,0,0,.32-.74l.32-1.48,3.07.64L219,22a3.27,3.27,0,0,1-.42,1.17,3.09,3.09,0,0,1-1,.95,2.39,2.39,0,0,1-1.06.32h-6.46A2,2,0,0,1,208,22.26v-6h-1.8a8.7,8.7,0,0,1-.64,3.49q-2.22,4.66-10.17,5.62l-.75-3.18a14.29,14.29,0,0,0,6.58-1.8,4.14,4.14,0,0,0,2-4.13h-1.7V17h-3V1h17.06ZM201.48,3.71V5.09h11.13V3.71Zm0,4.13V9.22h11.13V7.84Zm0,4.14v1.48h11.13V12Z" fill="#530edf"/><path d="M243.09.74a1.34,1.34,0,0,1-.43.43V5h9.86V7.74H243.3a26.3,26.3,0,0,0,3.39,4.66,22.26,22.26,0,0,0,7,5.41l-1.59,3.07q-5-2.65-9.44-9v4.77h3.71v2.75h-3.71V25h-3.18V19.39H236V16.64h3.49V12A26.44,26.44,0,0,1,235,17.59a25.75,25.75,0,0,1-5.09,4l-1.69-2.75A28.07,28.07,0,0,0,232.17,16a32.12,32.12,0,0,0,4.77-5.19,10.88,10.88,0,0,0,1.48-3.07h-8.9V5h10V.21h2.76C242.94.21,243.23.39,243.09.74Z" fill="#530edf"/><path d="M275.87,1a1.13,1.13,0,0,1-.42.43V3.82h10.91v3H275.45V9.11h8.37V20a3.54,3.54,0,0,1-.11.85,1.87,1.87,0,0,1-2,1.38h-3.29l-.31-3.18H280c.28,0,.46-.07.53-.21a1.24,1.24,0,0,0,.11-.54V12.08h-5.19V25.22h-3.18V12.08H267.5V22.15h-3.18v-13h7.95V6.78H261.56v-3h10.71V.42H275C275.73.42,276,.6,275.87,1Z" fill="#530edf"/><path d="M302,24.06a4,4,0,0,1-3,1.16A4.2,4.2,0,0,1,295.92,24a4,4,0,0,1-1.16-3A4.17,4.17,0,0,1,296,17.91a4,4,0,0,1,3-1.16A4.17,4.17,0,0,1,302.07,18a4,4,0,0,1,1.17,3A4.19,4.19,0,0,1,302,24.06Zm-1.16-4.67a2.48,2.48,0,0,0-1.8-.74,2.16,2.16,0,0,0-1.59.64,2.44,2.44,0,0,0-.11,3.39,2.36,2.36,0,0,0,1.7.74,2.29,2.29,0,0,0,1.69-.63,2.46,2.46,0,0,0,.75-1.81A2.2,2.2,0,0,0,300.8,19.39Z" fill="#530edf"/></svg>
