<?xml version="1.0" encoding="utf-8"?>
<!-- Generator: Adobe Illustrator 16.0.0, SVG Export Plug-In . SVG Version: 6.00 Build 0)  -->
<!DOCTYPE svg PUBLIC "-//W3C//DTD SVG 1.1//EN" "http://www.w3.org/Graphics/SVG/1.1/DTD/svg11.dtd">
<svg version="1.1" id="レイヤー_1" xmlns="http://www.w3.org/2000/svg" xmlns:xlink="http://www.w3.org/1999/xlink" x="0px"
	 y="0px" width="2095.505px" height="2065.432px" viewBox="0 0 2095.505 2065.432" enable-background="new 0 0 2095.505 2065.432"
	 xml:space="preserve">
<metadata><?xpacket begin="﻿" id="W5M0MpCehiHzreSzNTczkc9d"?>
<x:xmpmeta xmlns:x="adobe:ns:meta/" x:xmptk="Adobe XMP Core 5.3-c011 66.145661, 2012/02/06-14:56:27        ">
   <rdf:RDF xmlns:rdf="http://www.w3.org/1999/02/22-rdf-syntax-ns#">
      <rdf:Description rdf:about=""
            xmlns:xmpMM="http://ns.adobe.com/xap/1.0/mm/"
            xmlns:stRef="http://ns.adobe.com/xap/1.0/sType/ResourceRef#"
            xmlns:stEvt="http://ns.adobe.com/xap/1.0/sType/ResourceEvent#">
         <xmpMM:RenditionClass>proof:pdf</xmpMM:RenditionClass>
         <xmpMM:DocumentID>xmp.did:42788E8224206811822AB24E26C04745</xmpMM:DocumentID>
         <xmpMM:InstanceID>xmp.iid:42788E8224206811822AB24E26C04745</xmpMM:InstanceID>
         <xmpMM:OriginalDocumentID>uuid:2b66737d-3d7e-ee4d-ab14-3e670a298f3a</xmpMM:OriginalDocumentID>
         <xmpMM:DerivedFrom rdf:parseType="Resource">
            <stRef:instanceID>uuid:e39a14e0-43b1-5f48-a127-33926efe3cfd</stRef:instanceID>
            <stRef:documentID>uuid:2b66737d-3d7e-ee4d-ab14-3e670a298f3a</stRef:documentID>
            <stRef:originalDocumentID>uuid:2b66737d-3d7e-ee4d-ab14-3e670a298f3a</stRef:originalDocumentID>
            <stRef:renditionClass>proof:pdf</stRef:renditionClass>
         </xmpMM:DerivedFrom>
         <xmpMM:History>
            <rdf:Seq>
               <rdf:li rdf:parseType="Resource">
                  <stEvt:action>saved</stEvt:action>
                  <stEvt:instanceID>xmp.iid:42788E8224206811822AB24E26C04745</stEvt:instanceID>
                  <stEvt:when>2019-10-11T18:45:48+09:00</stEvt:when>
                  <stEvt:softwareAgent>Adobe Illustrator CS6 (Macintosh)</stEvt:softwareAgent>
                  <stEvt:changed>/</stEvt:changed>
               </rdf:li>
            </rdf:Seq>
         </xmpMM:History>
      </rdf:Description>
      <rdf:Description rdf:about=""
            xmlns:xmp="http://ns.adobe.com/xap/1.0/"
            xmlns:xmpGImg="http://ns.adobe.com/xap/1.0/g/img/">
         <xmp:CreateDate>2019-10-11T18:45:48+09:00</xmp:CreateDate>
         <xmp:CreatorTool>Adobe Illustrator CS6 (Macintosh)</xmp:CreatorTool>
         <xmp:ModifyDate>2019-10-11T18:45:48+09:00</xmp:ModifyDate>
         <xmp:MetadataDate>2019-10-11T18:45:48+09:00</xmp:MetadataDate>
         <xmp:Thumbnails>
            <rdf:Alt>
               <rdf:li rdf:parseType="Resource">
                  <xmpGImg:width>256</xmpGImg:width>
                  <xmpGImg:height>252</xmpGImg:height>
                  <xmpGImg:format>JPEG</xmpGImg:format>
                  <xmpGImg:image>/9j/4AAQSkZJRgABAgEASABIAAD/7QAsUGhvdG9zaG9wIDMuMAA4QklNA+0AAAAAABAASAAAAAEA&#xA;AQBIAAAAAQAB/+4ADkFkb2JlAGTAAAAAAf/bAIQABgQEBAUEBgUFBgkGBQYJCwgGBggLDAoKCwoK&#xA;DBAMDAwMDAwQDA4PEA8ODBMTFBQTExwbGxscHx8fHx8fHx8fHwEHBwcNDA0YEBAYGhURFRofHx8f&#xA;Hx8fHx8fHx8fHx8fHx8fHx8fHx8fHx8fHx8fHx8fHx8fHx8fHx8fHx8fHx8f/8AAEQgA/AEAAwER&#xA;AAIRAQMRAf/EAaIAAAAHAQEBAQEAAAAAAAAAAAQFAwIGAQAHCAkKCwEAAgIDAQEBAQEAAAAAAAAA&#xA;AQACAwQFBgcICQoLEAACAQMDAgQCBgcDBAIGAnMBAgMRBAAFIRIxQVEGE2EicYEUMpGhBxWxQiPB&#xA;UtHhMxZi8CRygvElQzRTkqKyY3PCNUQnk6OzNhdUZHTD0uIIJoMJChgZhJRFRqS0VtNVKBry4/PE&#xA;1OT0ZXWFlaW1xdXl9WZ2hpamtsbW5vY3R1dnd4eXp7fH1+f3OEhYaHiImKi4yNjo+Ck5SVlpeYmZ&#xA;qbnJ2en5KjpKWmp6ipqqusra6voRAAICAQIDBQUEBQYECAMDbQEAAhEDBCESMUEFURNhIgZxgZEy&#xA;obHwFMHR4SNCFVJicvEzJDRDghaSUyWiY7LCB3PSNeJEgxdUkwgJChgZJjZFGidkdFU38qOzwygp&#xA;0+PzhJSktMTU5PRldYWVpbXF1eX1RlZmdoaWprbG1ub2R1dnd4eXp7fH1+f3OEhYaHiImKi4yNjo&#xA;+DlJWWl5iZmpucnZ6fkqOkpaanqKmqq6ytrq+v/aAAwDAQACEQMRAD8A9U4q7FXYq7FXYq7FXYq7&#xA;FXYqh4bO3guZ7laiS5KeoSxIqootAfnlcMQjIyF3Lnuen3fBkZEgDuRGWMXYq7FXYq7FXYq7FXYq&#xA;7FXYq7FXYq7FXYq7FXYq7FXYq7FXYq7FXYq7FXYq7FXYq7FULfapY2L2yXUhRruVYLccWblI3QfC&#xA;DT6cWE8gjV9TSKxZuxV2KrJoIZ09OZBIlVbiwqKqQwP0EYYyI3Cr8CuxV2KuxV2KuxV2KuxV2Kux&#xA;V2KuxV2KuxV2KoW41KKDULWyaOVpLsOUkRCY19MVPNv2a9sWBmBIDvRWLN2KuxV2KuxV2KuxV2Ku&#xA;xV2KuxV1Aae3TFXYq7FXYq7FVC0tWtxKDNJN6kjSAyGvEN+wv+SO2QhGr3trx4+G9ybN7/cr5Nsd&#xA;irsVdirsVdirsVdirsVdirsVdirsVdirsVdirsVdirsVdirsVdirsVdirsVdirsVdirsVdirsVdi&#xA;rsVdirsVdirsVQd9rOk2Dol7dxW7yCqrI4UkeO/b3yMpAczTVkzwhXFIC+8otWVlDKQVIqCNwQck&#xA;2t4q7FXYq7FXYqo3F9ZWxUXM8cJapUSOq1A60qe2VZc+PHXHIRvvNMoxJ5BWBDAMpqDuCOhGWsXY&#xA;q7FXYq7FXYq7FXYq7FXYq7FXYq7FXYq7FXYq7FXYq7FXYq7FXYq7FXYqwrzl5J1TWNVjvbKWAKY1&#xA;jlSdnUjiSarxR67N02zC1Wj8Ug3VOl7S7KlqJiQlW1Mr0qx+oaXZ2PP1PqkEcHqUpy9NAtae9MzX&#xA;b44cMQO4IrFm7FXYq7FXYqkusaRfXN6Lm2Mbco1jdJWZKcGZqjir1rzzlvaL2enr5QlGYjw2N3L0&#xA;+oEAQQmllAbezggYgmJFQlRRaqKbDsPDOj0+HwscYXfDEC++hTjTlZJVsuYuxV2KuxV2KuxV2Kux&#xA;V2KuxV2KuxV2KuxV2KuxV2KuxV2KuxV2KuxV2KuxV2KuxV2KuxV2KuxV2KuxVC6jqlpp6QvclgLi&#xA;ZLePirPWSQ0UHiDTFhPII8++l5N99eUBY/qXpksxJ9T1K7ADpSmQ9XF/RYkz4+nBXxtXyba7FXYq&#xA;7FXYq7FXYq7FXYq7FXYq7FXYq7FXYq7FXYq7FXYq7FXYq7FXYq7FXYq7FXYq7FXYq7FXYq7FXYq7&#xA;FXYq7FXYqhNMspbK19CW6lvH5M3rTkF6MxIGwHT/ADoNsWGOJiKJtF4s3Yq7FXYq7FXYq7FVMzoL&#xA;hYKNzZWcNxPGikDdulfi6ZLh2tVTIq7FXYq7FXYq7FXYq7FXYq7FXYq7FXYq7FXYq7FXYq7FXYq7&#xA;FXYq7FXYq7FXYq7FXYq7FXYq7FXYq7FXYq7FXYq7FXYq7FXYq7FXYq7FVG+uGtrK4uFXk0MTyBfE&#xA;opNPwyGSXDEnuCYizTF/r2oITN9acyjclifTr7pXjTPIYe12u8YTMrjf00Kru5X+l2x00KqmWRvz&#xA;jV6ceQBp4VFc9hdQuxV2KuxV2KuxV2KuxV2KuxV2KuxV2KuxV2KuxV2KuxV2KuxV2KuxV2KuxV2K&#xA;uxV2KuxV2KuxVxAIodwcVS5fL+mBh+7JjBqISxKfKncf5J2+jNNH2f0Uc3jDGOO761ffV19jedTO&#xA;qtMc3LQ7FXYq7FXYq7FXYq7FXYq7FXYq7FXYq7FXYq7FXYq7FXYq7FXYq7FXYq7FXYq7FXYq7FXY&#xA;q7FXYqteKNyjOoYxtyjJFeLUK1HvRiMIJCrsCuxV2KuxV2KuxV2KuxV2KuxV2KuxV2KuxV2KuxV2&#xA;KuBBFR0xV2KuxV2KuxV2KuxV2KuxV2KuxV2KuxV2KuxV2KuxV2KuxV2KuxV2KuxV2KuxV2KuxV2K&#xA;uxV2KuxVxAIIIqDsQcVWQQQ28KQQoI4owFRB0AGGUiTZ5qvwK7FXYq7FXYq7FXYq7FXYq7FUM2p6&#xA;at4LJruEXh6WxkQSmor9ivLp7Y0x4xdXuicWTsVdirsVdirsVc3LieIBamwOwr898VWQNM0KNMgj&#xA;mKgyRqeQVu45UFcMgL25KvwK7FXYq7FXYq7FXYq7FXYq7FUHdpqTXVubZwtuD+/U03Fd+o8MrmJW&#xA;K5NGUZOIcJ9PVGZY3uxV2KuxV2KuxVKv8QQm8MCxMYhKYTKDvzDcD8NPshu9c5+XtJpo6v8AKni4&#xA;74b/AIb7ud+XLm5P5aXBxJrnQOM7FXYq7FXYq87n8ha43mlrxXQ2kl2br6wW+JVaT1OPHryXoMwJ&#xA;6ORzeJe23v2efydk5DqvFscPFfn7nomZ70DsVdirsVdirsVdirsVdirsVWT3EEEfqTyLFGCAXchR&#xA;Umg3OCUgNyxnMRFk0F+Fk7FULqZ1QWp/Rgha65LQXBYR8a/F9jetMWGTir01fmisWbsVUL5r1bOY&#xA;2Ko92EPoLKSEL025U3pixndHh5r7Y3Bt4jchVuCi+ssZJQPT4gpNDSvTFIut1TFLsVdirsVdirsV&#xA;diqXnQrE3X1j4v7z1TFUcPU5c+XTl9rfrmpPYmlOo/McP73ndnn31ybvHlw8PRMM2zS7FXYq7FXY&#xA;q7FXYq7FXYq7FXYqpxTpI8qKGBibgxZSoJ4hvhJ6jftkjGq81VMirsVdirsVWTQQzxmOaNZIzQlH&#xA;AYGhqNjgMQdixlASFEWF+Fk7FVkM8Myc4ZFkQEryUgiqmhG3gcMokc1X4FdirsVdirsVdirsVdir&#xA;sVdirTuiIzuwVFBZmY0AA3JJOKtRSxTRJLC6yRSAMkiEMrKdwQRsQcUA3uF2KXYq7FXYq7FXYq7F&#xA;XYq7FXYq7FXYq7FXYq7FXYq7FXYq7FWlVVFFAAqTQbbk1J+k42reKuxVQsZbuS3D3cIgmqwMatzF&#xA;AdjUeIyECSNxRasUpGNyFH5rku7Z7l7ZZVNxGA0kQPxAHoSMImLrqyGSJkYg+odFXJM3Yq7FXYq7&#xA;FXYqtmhimheGZBJFKpSSNhVWVhQgg9QRigi1ttbQW0CW9vGsUMQ4xxqKAAYrGIiKHJUxS7FXYq7F&#xA;XYq7FXYq7FVOS5t45I4pJUSWYkQozAM5UVIUHc0HhigkBUxS7FXYq7FXYq7FXYq7FWmLBSVFWpsP&#xA;fEoKF02a+mhZryIRSBqKACKig8ScrxykR6g04JzkPWKKLyxvdirsVdiq0RRCRpAiiRgAzgDkQOgJ&#xA;9q4KF2jhF31XYUuxV2KuxV2KuxV2KuxV2KuxV2KuxV2KuxV2KuxVQuLCyuJoJp4ElmtmL28jKCyM&#xA;RQlT2/z8MWJgCQSOSviydirsVdirsVdirsVdirsVdirsVdirsVdirsVdirsVcSAKnpirsVdirsVd&#xA;irsVdirsVdirsVdirsVdirsVdirsVdirsVdirsVU7iBJ4/Tcsq8laqMUPwsGG6kHtkoyo2qpkVdi&#xA;rsVdirsVdirsVdirTMqKWYhVUVZjsAB3OJKpS/ma0D0jt55U7SKECn6HdG/DObze1mgxz4TO66gE&#xA;j5/qckaSZCY2l3b3cImgbkh2OxBBHYg7g5vtPqMeaAnjIlE9Q0SiYmi3d2sF3byW868oZBR1qRUd&#xA;eoyycRIUeTVkxxnExlyK+ONI41jQURAFUdaACg64QKFMoxAFBdhS7FXYq7FVGyF6LdfrpjNxU8zF&#xA;XhSppTlv0yMOKvVza8XHw+uuLyVsk2OxVBaxq9npNhJe3bUjTZUH2nY9FUdyf7emRnMRBJ5Bqz54&#xA;4oGcuQebXv5k+Y55Wa3MVpFX4I0QOQP8pnrU+4A+WajJ2pK/SBXm8rm9oMpPoAA+aYaD+Zd0twsO&#xA;sqjW7Gn1qNeLJXu4rQr8gKe+X6btETPDIUfscvRdu8UhHKAL6h6MCCKjcHoc2T0jsVdirsVdirsV&#xA;dirsVdirsVdirsVdirsVdirsVdiqW+Yy40iXj3eEN/qmZA30ca1zUdvGQ0WXh58B/b9jfp64xbH8&#xA;8Ndwmflon61eAVpwhJHapMgqPfbf6M9O9hDPwMgP0cQr31v+h1+uqwn+d24DsVdirsVdirsVdirs&#xA;Vdirz782JZQdKiBPpN9Ydh25J6YU/c7Zru0yfDHv/W897QyPhxHS2AZonk3Yq9o8nySSeWNOMhqV&#xA;hCCv8qEqv/CgZ1eKRMIk8yB9z6HopGWGBPPhCcZNynYq7FXYq7FXYq7FXYq7FXYq7FXYq7FXYq7F&#xA;XYqtkjSSNo5FDI4Kup3BBFCDgIBFFQUpby1BUhLiVUPQHizKPBWI/wCJVzlM3sZoZz4hxR8gdvtB&#xA;PyLljWTA6JjZWUFnD6UINCeTsxqzMdizHx2/ptnR6TSY9PjGPGOGAceczI2VfMlg7FXYq7FXYq7F&#xA;XYq7FXYqknm7y4uuaZ6KMI7uFvUtpD05UoVbvxYfjQ9qZTnwjJAxLha/RjUYzHr097yG/sL3T5jD&#xA;fQPbSj9mQUB91b7LD3UkZoMmjyxNcJPu3eJzaHNjNSiUx0DytqmtToIY2itCf3l46kRhe/Gv229h&#xA;9NMu0+gnI3IcMftcvRdlZcshxDhh5/oex2lrDaWkNrAOMNvGsUS9aKgCqPuGb97eMQBQakvbaO6i&#xA;tHelxMGaJKHcL13pTImYBA6lgcsRIRJ9RVsk2OxV2KuxV2KuxV2KuxV2KuxV2KuxV2KuxV2KuxV2&#xA;KuxV2KuxV2KuxV2KuxV2KuxV2KuxV2KuxV2KuoK17+OKuxV2KuxV2KuxV2KuxV2KuxVCalaXlzHC&#xA;treNZtHMkkjoquXRftR/F05eP+1iwnEnka3ReLN2KuxV2KuxV2KuxV2KuxV2KuxVzMqqWYgKBUk7&#xA;AAYqtilimjWWJxJG45I6moIPcEYSCDRVdgV2KuxV2KuxV2KuxV2KuxV2KuxV2KuxV2KuxV2KuxV2&#xA;KuxV2KuxV2KuxV2KuxV2KuxV2KuxV2KuxVpVVVCqAqqKKo2AA7DElW8VdirsVdirsVdirsVdirsV&#xA;dirsVdirsVdirsVdirsVdirsVdirsVdirsVdirsVdirsVdirsVdirsVdirsVdirsVdirsVdirsVd&#xA;irsVdirsVdirsVdirsVdirsVdirsVdirsVdirsVdirsVdirsVdirsVdirsVdirsVdirsVdirsVdi&#xA;rsVdirsVdirsVdiqjeXcVpbSXElSqDoOpJNFUe5JplOozxxY5ZJmoxFllGJkaDGLm9vrpy8s8kY/&#xA;Zjhdo1UeFUKs3zP4dM8m7R9rtXmmfDPhw6Ac/if1O1x6aERuLWwXN7buHhuZS3cSu8ykeBDsfwof&#xA;fKtF7V63DO5S8SPdL9fMJnp4SHKmTadfx3tt6qjgykpLHWvFx1Fe43qPbPWNBrseqwxyw+mX2d4+&#xA;DqsmMwNFE5mMHYq7FXYq7FXYq7FXYq7FXYq7FXYq7FXYq7FXYq7FXYq7FXYq7FXYq7FXYq7FXYq7&#xA;FXYqk/mbl9XtQOhuBy+XpSH9ecz7Xk/yfOu+N/6YOVo/rSXPHHauxVN/Lded3T7P7s+3L4q/TTjn&#xA;qnsNxflJ3y8Q18g63W/UE7ztXCdirsVdirsVdirsVdirsVdirsVdirsVdirsVdirsVdirsVdirsV&#xA;dirsVdirsVdiqje3ttY2kt3dOI4IV5O58PkOpPbATQssZzEYmR2AYvY/mXolzeR27wzW6SsEWaQJ&#xA;xBJoOdGPEe+9O+2YuPW45y4Rz+91WHtrBknwCxfeye+tI7y1kt5DQOBRh1VlIZWH+qwByzU6eGbH&#xA;LHPeMhRdzCRibDGJ7S8tpPTmhb2lRWaMjx5AfD8mpnkXaXsrq9PI8ETkh0Mdz8Y8/wBDtseohIc6&#xA;ait7uaQRwwO7H9riVjHzcjj9A39sp0PszrdRKuAwj3yHD9h3KZ54RHNkFlpQtYIkSZ1dZDNOy0Ak&#xA;Yrx4sCD8NKU+Qz17szRY9HgGGAsAc/PqXVZchnKyj8zGtQtJ55hL6sDQcJGRORB5qOjinjkISJux&#xA;TXjmZXYrf5+avk2x2KuxV2KuxV2KuxV2KuxV2KuxV2KuxV2KuxV2KuxV2KuxV2KuxV2KuxV2KpX5&#xA;n0mTV9CutPicJLKEaNm6co3WQA07EpTIZIcUTHvDj6vB4uKUO8PNbPyD5kubtLee1NtCzUmnZkIR&#xA;e5FGPI06U/DNRg7PyDIDLkC8rpuxc/iDiFRB529ezdPZOxV2KuxV2KuxV2KuxV2KuxV2KuxV2Kux&#xA;V2KuxV2KuxV2KuxV2KuxV2KuxV2KuxV2KuxV2KuxV2KuxV2KuxV2KuxV2KuxV2KuxV2KuxV2KuxV&#xA;2KuxV2KuxV2KuxV2KuxV2KuxV2KuxV2KoHRv0j9S/wByFfrPN68uNePI8fsbdMqw8XD6ubj6XxOD&#xA;959Vnu/Qjstch2KuxV2KuxV2KuxV2KuxV2KuxV2KuxV2KuxV/9k=</xmpGImg:image>
               </rdf:li>
            </rdf:Alt>
         </xmp:Thumbnails>
      </rdf:Description>
      <rdf:Description rdf:about=""
            xmlns:pdf="http://ns.adobe.com/pdf/1.3/">
         <pdf:Producer>Adobe PDF library 15.00</pdf:Producer>
      </rdf:Description>
      <rdf:Description rdf:about=""
            xmlns:dc="http://purl.org/dc/elements/1.1/">
         <dc:format>image/svg+xml</dc:format>
      </rdf:Description>
      <rdf:Description rdf:about=""
            xmlns:xmpTPg="http://ns.adobe.com/xap/1.0/t/pg/"
            xmlns:stDim="http://ns.adobe.com/xap/1.0/sType/Dimensions#"
            xmlns:xmpG="http://ns.adobe.com/xap/1.0/g/">
         <xmpTPg:NPages>1</xmpTPg:NPages>
         <xmpTPg:HasVisibleTransparency>True</xmpTPg:HasVisibleTransparency>
         <xmpTPg:HasVisibleOverprint>False</xmpTPg:HasVisibleOverprint>
         <xmpTPg:MaxPageSize rdf:parseType="Resource">
            <stDim:w>2095.504883</stDim:w>
            <stDim:h>2065.432129</stDim:h>
            <stDim:unit>Pixels</stDim:unit>
         </xmpTPg:MaxPageSize>
         <xmpTPg:PlateNames>
            <rdf:Seq>
               <rdf:li>Cyan</rdf:li>
               <rdf:li>Magenta</rdf:li>
               <rdf:li>Yellow</rdf:li>
               <rdf:li>R=73 G=225 B=98 1</rdf:li>
               <rdf:li>R=83 G=14 B=223 1</rdf:li>
            </rdf:Seq>
         </xmpTPg:PlateNames>
         <xmpTPg:SwatchGroups>
            <rdf:Seq>
               <rdf:li rdf:parseType="Resource">
                  <xmpG:groupName>初期設定のスウォッチグループ</xmpG:groupName>
                  <xmpG:groupType>0</xmpG:groupType>
                  <xmpG:Colorants>
                     <rdf:Seq>
                        <rdf:li rdf:parseType="Resource">
                           <xmpG:swatchName>R=73 G=225 B=98 1</xmpG:swatchName>
                           <xmpG:type>SPOT</xmpG:type>
                           <xmpG:tint>100.000000</xmpG:tint>
                           <xmpG:mode>RGB</xmpG:mode>
                           <xmpG:red>73</xmpG:red>
                           <xmpG:green>225</xmpG:green>
                           <xmpG:blue>98</xmpG:blue>
                        </rdf:li>
                        <rdf:li rdf:parseType="Resource">
                           <xmpG:swatchName>R=83 G=14 B=223 1</xmpG:swatchName>
                           <xmpG:type>SPOT</xmpG:type>
                           <xmpG:tint>100.000000</xmpG:tint>
                           <xmpG:mode>RGB</xmpG:mode>
                           <xmpG:red>82</xmpG:red>
                           <xmpG:green>14</xmpG:green>
                           <xmpG:blue>223</xmpG:blue>
                        </rdf:li>
                     </rdf:Seq>
                  </xmpG:Colorants>
               </rdf:li>
            </rdf:Seq>
         </xmpTPg:SwatchGroups>
      </rdf:Description>
   </rdf:RDF>
</x:xmpmeta>
                                                                                                    
                                                                                                    
                                                                                                    
                                                                                                    
                                                                                                    
                                                                                                    
                                                                                                    
                                                                                                    
                                                                                                    
                                                                                                    
                                                                                                    
                                                                                                    
                                                                                                    
                                                                                                    
                                                                                                    
                                                                                                    
                                                                                                    
                                                                                                    
                                                                                                    
                                                                                                    
                           
<?xpacket end="w"?>
	</metadata>
<g>
	<path fill="#49E162" d="M1362.416,1114.94c0,5.036-4.082,9.118-9.119,9.118c-5.035,0-9.117-4.082-9.117-9.118
		c0-5.035,4.082-9.117,9.117-9.117C1358.334,1105.823,1362.416,1109.905,1362.416,1114.94"/>
	<circle fill="none" stroke="#530EDF" stroke-width="2.5" stroke-miterlimit="10" cx="1353.298" cy="1114.94" r="9.118"/>
	<g opacity="0.5">
		<g>
			<defs>
				<rect id="SVGID_1_" x="288.895" y="864.732" width="32.27" height="32.271"/>
			</defs>
			<clipPath id="SVGID_2_">
				<use xlink:href="#SVGID_1_"  overflow="visible"/>
			</clipPath>
			<path clip-path="url(#SVGID_2_)" fill="#49E162" d="M321.167,880.87c0,8.911-7.224,16.135-16.135,16.135
				s-16.135-7.224-16.135-16.135c0-8.91,7.224-16.135,16.135-16.135S321.167,871.959,321.167,880.87"/>
		</g>
	</g>
	<g opacity="0.8">
		<g>
			<defs>
				<rect id="SVGID_3_" x="783.254" y="1264.72" width="22.19" height="22.188"/>
			</defs>
			<clipPath id="SVGID_4_">
				<use xlink:href="#SVGID_3_"  overflow="visible"/>
			</clipPath>
			<path clip-path="url(#SVGID_4_)" fill="#49E162" d="M805.446,1275.814c0,6.127-4.967,11.094-11.095,11.094
				c-6.127,0-11.095-4.967-11.095-11.094s4.968-11.094,11.095-11.094C800.479,1264.72,805.446,1269.687,805.446,1275.814"/>
		</g>
	</g>
	<g opacity="0.8">
		<g>
			<defs>
				<rect id="SVGID_5_" x="213.214" y="1098.914" width="22.19" height="22.188"/>
			</defs>
			<clipPath id="SVGID_6_">
				<use xlink:href="#SVGID_5_"  overflow="visible"/>
			</clipPath>
			<path clip-path="url(#SVGID_6_)" fill="#49E162" d="M235.401,1110.007c0,6.127-4.967,11.094-11.094,11.094
				c-6.128,0-11.095-4.967-11.095-11.094s4.967-11.095,11.095-11.095C230.434,1098.913,235.401,1103.88,235.401,1110.007"/>
		</g>
	</g>
	<g opacity="0.8">
		<g>
			<defs>
				<rect id="SVGID_7_" x="1271.084" y="1422.275" width="22.19" height="22.188"/>
			</defs>
			<clipPath id="SVGID_8_">
				<use xlink:href="#SVGID_7_"  overflow="visible"/>
			</clipPath>
			<path clip-path="url(#SVGID_8_)" fill="#49E162" d="M1293.271,1433.37c0,6.127-4.967,11.094-11.094,11.094
				c-6.128,0-11.095-4.967-11.095-11.094s4.967-11.095,11.095-11.095C1288.304,1422.275,1293.271,1427.243,1293.271,1433.37"/>
		</g>
	</g>
	<g opacity="0.8">
		<g>
			<defs>
				<rect id="SVGID_9_" x="1877.794" y="904.872" width="22.19" height="22.19"/>
			</defs>
			<clipPath id="SVGID_10_">
				<use xlink:href="#SVGID_9_"  overflow="visible"/>
			</clipPath>
			<path clip-path="url(#SVGID_10_)" fill="#49E162" d="M1899.984,915.971c0,6.127-4.967,11.095-11.094,11.095
				c-6.128,0-11.096-4.968-11.096-11.095s4.968-11.094,11.096-11.094C1895.018,904.877,1899.984,909.844,1899.984,915.971"/>
		</g>
	</g>
	<g opacity="0.8">
		<g>
			<defs>
				<rect id="SVGID_11_" x="1838.114" y="1865.933" width="22.189" height="22.188"/>
			</defs>
			<clipPath id="SVGID_12_">
				<use xlink:href="#SVGID_11_"  overflow="visible"/>
			</clipPath>
			<path clip-path="url(#SVGID_12_)" fill="#49E162" d="M1860.307,1877.027c0,6.127-4.967,11.095-11.094,11.095
				s-11.095-4.968-11.095-11.095s4.968-11.094,11.095-11.094S1860.307,1870.9,1860.307,1877.027"/>
		</g>
	</g>
	<g opacity="0.8">
		<g>
			<defs>
				<rect id="SVGID_13_" x="130.414" y="1075.735" width="22.19" height="22.188"/>
			</defs>
			<clipPath id="SVGID_14_">
				<use xlink:href="#SVGID_13_"  overflow="visible"/>
			</clipPath>
			<path clip-path="url(#SVGID_14_)" fill="#49E162" d="M152.601,1086.829c0,6.127-4.967,11.095-11.094,11.095
				c-6.128,0-11.095-4.968-11.095-11.095s4.967-11.094,11.095-11.094C147.634,1075.735,152.601,1080.702,152.601,1086.829"/>
		</g>
	</g>
	<g opacity="0.8">
		<g>
			<defs>
				<rect id="SVGID_15_" x="1726.914" y="350.952" width="22.18" height="22.19"/>
			</defs>
			<clipPath id="SVGID_16_">
				<use xlink:href="#SVGID_15_"  overflow="visible"/>
			</clipPath>
			<path clip-path="url(#SVGID_16_)" fill="#49E162" d="M1749.098,362.048c0,6.128-4.967,11.095-11.094,11.095
				s-11.095-4.967-11.095-11.095c0-6.127,4.968-11.094,11.095-11.094S1749.098,355.921,1749.098,362.048"/>
		</g>
	</g>
	<g opacity="0.8">
		<g>
			<defs>
				<rect id="SVGID_17_" x="659.104" y="138.083" width="22.19" height="22.189"/>
			</defs>
			<clipPath id="SVGID_18_">
				<use xlink:href="#SVGID_17_"  overflow="visible"/>
			</clipPath>
			<path clip-path="url(#SVGID_18_)" fill="#49E162" d="M681.292,149.179c0,6.128-4.967,11.095-11.095,11.095
				c-6.127,0-11.094-4.967-11.094-11.095c0-6.127,4.967-11.094,11.094-11.094C676.325,138.085,681.292,143.052,681.292,149.179"/>
		</g>
	</g>
	<g opacity="0.8">
		<g>
			<defs>
				<rect id="SVGID_19_" x="1047.924" y="2043.244" width="22.19" height="22.188"/>
			</defs>
			<clipPath id="SVGID_20_">
				<use xlink:href="#SVGID_19_"  overflow="visible"/>
			</clipPath>
			<path clip-path="url(#SVGID_20_)" fill="#49E162" d="M1070.109,2054.337c0,6.127-4.967,11.095-11.094,11.095
				s-11.095-4.968-11.095-11.095s4.968-11.094,11.095-11.094S1070.109,2048.21,1070.109,2054.337"/>
		</g>
	</g>
	<g opacity="0.8">
		<g>
			<defs>
				<rect id="SVGID_21_" x="442.744" y="1241.599" width="22.189" height="22.189"/>
			</defs>
			<clipPath id="SVGID_22_">
				<use xlink:href="#SVGID_21_"  overflow="visible"/>
			</clipPath>
			<path clip-path="url(#SVGID_22_)" fill="#49E162" d="M464.93,1252.694c0,6.127-4.967,11.094-11.095,11.094
				s-11.095-4.967-11.095-11.094s4.967-11.094,11.095-11.094S464.93,1246.567,464.93,1252.694"/>
		</g>
	</g>
	<g>
		<g>
			<defs>
				<rect id="SVGID_23_" x="712.395" y="1039.152" width="21.18" height="21.19"/>
			</defs>
			<clipPath id="SVGID_24_">
				<use xlink:href="#SVGID_23_"  overflow="visible"/>
			</clipPath>
			<path clip-path="url(#SVGID_24_)" fill="#49E162" d="M732.327,1049.748c0,5.159-4.183,9.343-9.342,9.343
				s-9.342-4.184-9.342-9.343s4.183-9.342,9.342-9.342S732.327,1044.588,732.327,1049.748"/>
			
				<circle clip-path="url(#SVGID_24_)" fill="none" stroke="#530EDF" stroke-width="2.5" stroke-miterlimit="10" cx="722.985" cy="1049.748" r="9.342"/>
		</g>
	</g>
	<g>
		<g>
			<defs>
				<rect id="SVGID_25_" x="184.054" y="941.062" width="21.19" height="21.19"/>
			</defs>
			<clipPath id="SVGID_26_">
				<use xlink:href="#SVGID_25_"  overflow="visible"/>
			</clipPath>
			<path clip-path="url(#SVGID_26_)" fill="#49E162" d="M203.99,951.657c0,5.159-4.184,9.343-9.342,9.343
				c-5.159,0-9.342-4.184-9.342-9.343c0-5.158,4.183-9.342,9.342-9.342C199.807,942.315,203.99,946.499,203.99,951.657"/>
			
				<circle clip-path="url(#SVGID_26_)" fill="none" stroke="#530EDF" stroke-width="2.5" stroke-miterlimit="10" cx="194.648" cy="951.657" r="9.342"/>
		</g>
	</g>
	<g>
		<g>
			<defs>
				<rect id="SVGID_27_" x="602.214" y="0.002" width="21.19" height="21.18"/>
			</defs>
			<clipPath id="SVGID_28_">
				<use xlink:href="#SVGID_27_"  overflow="visible"/>
			</clipPath>
			<path clip-path="url(#SVGID_28_)" fill="#FFF100" d="M622.151,10.592c0,5.159-4.184,9.342-9.343,9.342
				c-5.158,0-9.342-4.183-9.342-9.342c0-5.159,4.184-9.342,9.342-9.342C617.968,1.25,622.151,5.433,622.151,10.592"/>
			
				<circle clip-path="url(#SVGID_28_)" fill="none" stroke="#530EDF" stroke-width="2.5" stroke-miterlimit="10" cx="612.809" cy="10.592" r="9.342"/>
		</g>
	</g>
	<g opacity="0.5">
		<g>
			<defs>
				<rect id="SVGID_29_" x="1960.384" y="1070.694" width="32.271" height="32.271"/>
			</defs>
			<clipPath id="SVGID_30_">
				<use xlink:href="#SVGID_29_"  overflow="visible"/>
			</clipPath>
			<path clip-path="url(#SVGID_30_)" fill="#49E162" d="M1992.658,1086.829c0,8.911-7.225,16.136-16.135,16.136
				c-8.911,0-16.135-7.225-16.135-16.136c0-8.91,7.224-16.135,16.135-16.135C1985.434,1070.694,1992.658,1077.918,1992.658,1086.829
				"/>
		</g>
	</g>
	<g>
		<g>
			<defs>
				<rect id="SVGID_31_" x="1939.884" y="1452.85" width="21.181" height="21.184"/>
			</defs>
			<clipPath id="SVGID_32_">
				<use xlink:href="#SVGID_31_"  overflow="visible"/>
			</clipPath>
			<path clip-path="url(#SVGID_32_)" fill="#49E162" d="M1959.813,1463.442c0,5.159-4.184,9.343-9.343,9.343
				c-5.158,0-9.342-4.184-9.342-9.343c0-5.158,4.184-9.342,9.342-9.342C1955.63,1454.1,1959.813,1458.284,1959.813,1463.442"/>
			
				<circle clip-path="url(#SVGID_32_)" fill="none" stroke="#530EDF" stroke-width="2.5" stroke-miterlimit="10" cx="1950.471" cy="1463.442" r="9.342"/>
		</g>
	</g>
	<g>
		<g>
			<defs>
				<rect id="SVGID_33_" x="1666.364" y="107.512" width="21.18" height="21.18"/>
			</defs>
			<clipPath id="SVGID_34_">
				<use xlink:href="#SVGID_33_"  overflow="visible"/>
			</clipPath>
			<path clip-path="url(#SVGID_34_)" fill="#49E162" d="M1686.295,118.101c0,5.159-4.184,9.343-9.342,9.343
				c-5.16,0-9.343-4.184-9.343-9.343c0-5.158,4.183-9.342,9.343-9.342C1682.111,108.759,1686.295,112.943,1686.295,118.101"/>
			
				<circle clip-path="url(#SVGID_34_)" fill="none" stroke="#530EDF" stroke-width="2.5" stroke-miterlimit="10" cx="1676.953" cy="118.101" r="9.342"/>
		</g>
	</g>
	<g>
		<g>
			<defs>
				<rect id="SVGID_35_" x="0.004" y="467.422" width="21.18" height="21.18"/>
			</defs>
			<clipPath id="SVGID_36_">
				<use xlink:href="#SVGID_35_"  overflow="visible"/>
			</clipPath>
			<path clip-path="url(#SVGID_36_)" fill="#49E162" d="M19.934,478.012c0,5.159-4.182,9.342-9.342,9.342
				c-5.159,0-9.342-4.183-9.342-9.342s4.183-9.342,9.342-9.342C15.752,468.67,19.934,472.853,19.934,478.012"/>
			
				<circle clip-path="url(#SVGID_36_)" fill="none" stroke="#530EDF" stroke-width="2.5" stroke-miterlimit="10" cx="10.592" cy="478.012" r="9.342"/>
		</g>
	</g>
	
		<line fill="none" stroke="#530EDF" stroke-width="2.5" stroke-linecap="round" stroke-linejoin="round" stroke-miterlimit="10" x1="1351.922" y1="659.946" x2="1359.867" y2="659.946"/>
	
		<line fill="none" stroke="#530EDF" stroke-width="2.5" stroke-linecap="round" stroke-linejoin="round" stroke-miterlimit="10" x1="1355.895" y1="655.972" x2="1355.895" y2="663.918"/>
	
		<line fill="none" stroke="#530EDF" stroke-width="2.5" stroke-linecap="round" stroke-linejoin="round" stroke-miterlimit="10" x1="1518.656" y1="969.325" x2="1534.308" y2="969.325"/>
	
		<line fill="none" stroke="#530EDF" stroke-width="2.5" stroke-linecap="round" stroke-linejoin="round" stroke-miterlimit="10" x1="1526.482" y1="961.499" x2="1526.482" y2="977.152"/>
	
		<line fill="none" stroke="#530EDF" stroke-width="2.5" stroke-linecap="round" stroke-linejoin="round" stroke-miterlimit="10" x1="551.045" y1="510.102" x2="566.697" y2="510.102"/>
	
		<line fill="none" stroke="#530EDF" stroke-width="2.5" stroke-linecap="round" stroke-linejoin="round" stroke-miterlimit="10" x1="558.871" y1="502.276" x2="558.871" y2="517.929"/>
	
		<line fill="none" stroke="#530EDF" stroke-width="2.5" stroke-linecap="round" stroke-linejoin="round" stroke-miterlimit="10" x1="650.045" y1="1570.636" x2="665.697" y2="1570.636"/>
	
		<line fill="none" stroke="#530EDF" stroke-width="2.5" stroke-linecap="round" stroke-linejoin="round" stroke-miterlimit="10" x1="657.871" y1="1562.81" x2="657.871" y2="1578.463"/>
	
		<line fill="none" stroke="#530EDF" stroke-width="2.5" stroke-linecap="round" stroke-linejoin="round" stroke-miterlimit="10" x1="1742.844" y1="1851.389" x2="1758.496" y2="1851.389"/>
	
		<line fill="none" stroke="#530EDF" stroke-width="2.5" stroke-linecap="round" stroke-linejoin="round" stroke-miterlimit="10" x1="1750.67" y1="1843.563" x2="1750.67" y2="1859.215"/>
	
		<line fill="none" stroke="#530EDF" stroke-width="2.5" stroke-linecap="round" stroke-linejoin="round" stroke-miterlimit="10" x1="1751.418" y1="1191.707" x2="1767.07" y2="1191.707"/>
	
		<line fill="none" stroke="#530EDF" stroke-width="2.5" stroke-linecap="round" stroke-linejoin="round" stroke-miterlimit="10" x1="1759.244" y1="1183.88" x2="1759.244" y2="1199.534"/>
	
		<line fill="none" stroke="#530EDF" stroke-width="2.5" stroke-linecap="round" stroke-linejoin="round" stroke-miterlimit="10" x1="2033.796" y1="981.499" x2="2049.447" y2="981.499"/>
	
		<line fill="none" stroke="#530EDF" stroke-width="2.5" stroke-linecap="round" stroke-linejoin="round" stroke-miterlimit="10" x1="2041.622" y1="973.672" x2="2041.622" y2="989.326"/>
	
		<line fill="none" stroke="#530EDF" stroke-width="2.5" stroke-linecap="round" stroke-linejoin="round" stroke-miterlimit="10" x1="1632.897" y1="825.413" x2="1648.55" y2="825.413"/>
	
		<line fill="none" stroke="#530EDF" stroke-width="2.5" stroke-linecap="round" stroke-linejoin="round" stroke-miterlimit="10" x1="1640.724" y1="817.586" x2="1640.724" y2="833.239"/>
	<g>
		<g>
			<defs>
				<rect id="SVGID_37_" x="244.774" y="1285.928" width="116.73" height="116.735"/>
			</defs>
			<clipPath id="SVGID_38_">
				<use xlink:href="#SVGID_37_"  overflow="visible"/>
			</clipPath>
			<path clip-path="url(#SVGID_38_)" fill="#FFF100" d="M360.257,1344.295c0,31.545-25.571,57.117-57.117,57.117
				c-31.545,0-57.118-25.572-57.118-57.117s25.573-57.117,57.118-57.117C334.686,1287.178,360.257,1312.75,360.257,1344.295"/>
			
				<circle clip-path="url(#SVGID_38_)" fill="none" stroke="#530EDF" stroke-width="2.5" stroke-miterlimit="10" cx="303.139" cy="1344.295" r="57.117"/>
		</g>
	</g>
	<g>
		<g>
			<defs>
				<rect id="SVGID_39_" x="728.554" y="888.012" width="50.931" height="50.93"/>
			</defs>
			<clipPath id="SVGID_40_">
				<use xlink:href="#SVGID_39_"  overflow="visible"/>
			</clipPath>
			<path clip-path="url(#SVGID_40_)" fill="#FFF100" d="M778.237,913.475c0,13.374-10.843,24.217-24.216,24.217
				c-13.375,0-24.217-10.843-24.217-24.217s10.842-24.216,24.217-24.216C767.395,889.259,778.237,900.101,778.237,913.475"/>
			
				<circle clip-path="url(#SVGID_40_)" fill="none" stroke="#530EDF" stroke-width="2.5" stroke-miterlimit="10" cx="754.021" cy="913.475" r="24.216"/>
		</g>
	</g>
	<g>
		<g>
			<defs>
				<rect id="SVGID_41_" x="1530.834" y="252.452" width="50.93" height="50.931"/>
			</defs>
			<clipPath id="SVGID_42_">
				<use xlink:href="#SVGID_41_"  overflow="visible"/>
			</clipPath>
			<path clip-path="url(#SVGID_42_)" fill="#FFF100" d="M1580.513,277.917c0,13.374-10.842,24.216-24.216,24.216
				s-24.216-10.842-24.216-24.216s10.842-24.216,24.216-24.216S1580.513,264.542,1580.513,277.917"/>
			
				<circle clip-path="url(#SVGID_42_)" fill="none" stroke="#530EDF" stroke-width="2.5" stroke-miterlimit="10" cx="1556.297" cy="277.917" r="24.216"/>
		</g>
	</g>
	<g>
		<g>
			<defs>
				<rect id="SVGID_43_" x="1548.804" y="1710.064" width="183.841" height="183.837"/>
			</defs>
			<clipPath id="SVGID_44_">
				<use xlink:href="#SVGID_43_"  overflow="visible"/>
			</clipPath>
			<path clip-path="url(#SVGID_44_)" fill="#FFF100" d="M1731.393,1801.983c0,50.074-40.595,90.669-90.67,90.669
				c-50.073,0-90.668-40.595-90.668-90.669c0-50.075,40.595-90.67,90.668-90.67
				C1690.798,1711.313,1731.393,1751.908,1731.393,1801.983"/>
			
				<circle clip-path="url(#SVGID_44_)" fill="none" stroke="#530EDF" stroke-width="2.5" stroke-miterlimit="10" cx="1640.724" cy="1801.983" r="90.669"/>
		</g>
	</g>
	<g>
		<g>
			<defs>
				<rect id="SVGID_45_" x="1121.594" y="843.833" width="52.96" height="52.96"/>
			</defs>
			<clipPath id="SVGID_46_">
				<use xlink:href="#SVGID_45_"  overflow="visible"/>
			</clipPath>
			<path clip-path="url(#SVGID_46_)" fill="#49E162" d="M1173.304,870.314c0,13.935-11.297,25.232-25.232,25.232
				c-13.935,0-25.231-11.298-25.231-25.232s11.297-25.231,25.231-25.231C1162.007,845.083,1173.304,856.379,1173.304,870.314"/>
			
				<circle clip-path="url(#SVGID_46_)" fill="none" stroke="#530EDF" stroke-width="2.5" stroke-miterlimit="10" cx="1148.072" cy="870.314" r="25.232"/>
		</g>
	</g>
	<g>
		<g>
			<defs>
				<rect id="SVGID_47_" x="1424.804" y="1871.317" width="80.03" height="80.037"/>
			</defs>
			<clipPath id="SVGID_48_">
				<use xlink:href="#SVGID_47_"  overflow="visible"/>
			</clipPath>
			<path clip-path="url(#SVGID_48_)" fill="#49E162" d="M1503.587,1911.336c0,21.41-17.357,38.769-38.77,38.769
				c-21.411,0-38.768-17.358-38.768-38.769c0-21.411,17.356-38.77,38.768-38.77
				C1486.229,1872.567,1503.587,1889.925,1503.587,1911.336"/>
			
				<circle clip-path="url(#SVGID_48_)" fill="none" stroke="#530EDF" stroke-width="2.5" stroke-miterlimit="10" cx="1464.818" cy="1911.336" r="38.769"/>
		</g>
	</g>
	<g>
		<g>
			<defs>
				<rect id="SVGID_49_" x="1677.064" y="372.252" width="21.189" height="21.189"/>
			</defs>
			<clipPath id="SVGID_50_">
				<use xlink:href="#SVGID_49_"  overflow="visible"/>
			</clipPath>
			<path clip-path="url(#SVGID_50_)" fill="#49E162" d="M1697.001,382.849c0,5.159-4.183,9.342-9.342,9.342
				s-9.343-4.183-9.343-9.342s4.184-9.342,9.343-9.342S1697.001,377.69,1697.001,382.849"/>
			
				<circle clip-path="url(#SVGID_50_)" fill="none" stroke="#530EDF" stroke-width="2.5" stroke-miterlimit="10" cx="1687.659" cy="382.849" r="9.342"/>
		</g>
	</g>
	<g>
		<g>
			<defs>
				<rect id="SVGID_51_" x="2074.324" y="874.282" width="21.18" height="21.19"/>
			</defs>
			<clipPath id="SVGID_52_">
				<use xlink:href="#SVGID_51_"  overflow="visible"/>
			</clipPath>
			<path clip-path="url(#SVGID_52_)" fill="#49E162" d="M2094.255,884.877c0,5.158-4.183,9.342-9.342,9.342
				s-9.342-4.184-9.342-9.342c0-5.159,4.183-9.342,9.342-9.342S2094.255,879.718,2094.255,884.877"/>
			
				<circle clip-path="url(#SVGID_52_)" fill="none" stroke="#530EDF" stroke-width="2.5" stroke-miterlimit="10" cx="2084.913" cy="884.877" r="9.342"/>
		</g>
	</g>
	<g>
		<g>
			<defs>
				<rect id="SVGID_53_" x="363.725" y="112.002" width="21.18" height="21.18"/>
			</defs>
			<clipPath id="SVGID_54_">
				<use xlink:href="#SVGID_53_"  overflow="visible"/>
			</clipPath>
			<path clip-path="url(#SVGID_54_)" fill="#49E162" d="M383.658,122.59c0,5.159-4.183,9.342-9.342,9.342s-9.343-4.183-9.343-9.342
				s4.184-9.342,9.343-9.342S383.658,117.431,383.658,122.59"/>
			
				<circle clip-path="url(#SVGID_54_)" fill="none" stroke="#530EDF" stroke-width="2.5" stroke-miterlimit="10" cx="374.316" cy="122.59" r="9.342"/>
		</g>
	</g>
	<g>
		<g>
			<defs>
				<rect id="SVGID_55_" x="1069.304" y="250.252" width="52.971" height="52.97"/>
			</defs>
			<clipPath id="SVGID_56_">
				<use xlink:href="#SVGID_55_"  overflow="visible"/>
			</clipPath>
			<path clip-path="url(#SVGID_56_)" fill="#49E162" d="M1121.02,276.738c0,13.935-11.297,25.231-25.232,25.231
				s-25.232-11.297-25.232-25.231c0-13.936,11.297-25.232,25.232-25.232S1121.02,262.802,1121.02,276.738"/>
			
				<circle clip-path="url(#SVGID_56_)" fill="none" stroke="#530EDF" stroke-width="2.5" stroke-miterlimit="10" cx="1095.787" cy="276.738" r="25.232"/>
		</g>
	</g>
	<g>
		<g>
			<defs>
				<rect id="SVGID_57_" x="1303.145" y="534.112" width="75.22" height="75.21"/>
			</defs>
			<clipPath id="SVGID_58_">
				<use xlink:href="#SVGID_57_"  overflow="visible"/>
			</clipPath>
			<path clip-path="url(#SVGID_58_)" fill="#FFF100" d="M1377.109,571.715c0,20.08-16.277,36.357-36.356,36.357
				c-20.08,0-36.358-16.277-36.358-36.357s16.278-36.357,36.358-36.357C1360.832,535.358,1377.109,551.635,1377.109,571.715"/>
			
				<circle clip-path="url(#SVGID_58_)" fill="none" stroke="#530EDF" stroke-width="2.5" stroke-miterlimit="10" cx="1340.752" cy="571.715" r="36.357"/>
		</g>
	</g>
	
		<line fill="none" stroke="#530EDF" stroke-width="2.5" stroke-linecap="round" stroke-linejoin="round" stroke-miterlimit="10" x1="389.891" y1="792.314" x2="405.543" y2="792.314"/>
	
		<line fill="none" stroke="#530EDF" stroke-width="2.5" stroke-linecap="round" stroke-linejoin="round" stroke-miterlimit="10" x1="397.717" y1="784.488" x2="397.717" y2="800.141"/>
	
		<line fill="none" stroke="#530EDF" stroke-width="2.5" stroke-linecap="round" stroke-linejoin="round" stroke-miterlimit="10" x1="636.978" y1="70.339" x2="652.63" y2="70.339"/>
	
		<line fill="none" stroke="#530EDF" stroke-width="2.5" stroke-linecap="round" stroke-linejoin="round" stroke-miterlimit="10" x1="644.804" y1="62.513" x2="644.804" y2="78.167"/>
	<g>
		<g>
			<defs>
				<rect id="SVGID_59_" x="1015.294" y="1262.854" width="176.11" height="176.111"/>
			</defs>
			<clipPath id="SVGID_60_">
				<use xlink:href="#SVGID_59_"  overflow="visible"/>
			</clipPath>
			<path clip-path="url(#SVGID_60_)" fill="#49E162" d="M1190.156,1350.91c0,47.94-38.864,86.806-86.807,86.806
				c-47.94,0-86.806-38.865-86.806-86.806c0-47.942,38.865-86.806,86.806-86.806
				C1151.292,1264.104,1190.156,1302.967,1190.156,1350.91"/>
			
				<circle clip-path="url(#SVGID_60_)" fill="none" stroke="#530EDF" stroke-width="2.5" stroke-miterlimit="10" cx="1103.35" cy="1350.91" r="86.806"/>
		</g>
	</g>
</g>
</svg>
